<svg id="logosandtypes_com" data-name="logosandtypes com" xmlns="http://www.w3.org/2000/svg" viewBox="0 0 150 150"><defs><style>.cls-1{fill:none;}.cls-2{fill:#c8102e;}</style></defs><path class="cls-1" d="M0,0H150V150H0Z" transform="translate(0 0)"/><path class="cls-2" d="M75.9,12A63.75,63.75,0,0,0,12.34,75.59c0,34.78,28.77,63.55,63.56,63.55s63.55-28.77,63.55-63.55A63.53,63.53,0,0,0,75.9,12Zm0,11a52,52,0,0,1,39.47,18.06H97.31l2-3.34c2.34-4-5-7.36-7.36-3.35l-3.34,7H36.43A52.12,52.12,0,0,1,75.9,23.07ZM24.05,75.59a51,51,0,0,1,7.36-26.76H80.58l7.36,16.72H38.43a5.44,5.44,0,0,0-5.68,5.69V88.3c0,3.68,2.67,5,5.68,6.35V70.57h7c-2,2.34-3,5-3,9.7a12.9,12.9,0,0,0,7,12l-6,11L67.2,127.1C42.11,122.42,24.05,101.68,24.05,75.59Zm55.19,51.84L55.49,103.35l8.7-17.06h7l-7.7,16.06L88.27,127.1C84.93,127.1,81.92,127.43,79.24,127.43Zm16.06-3L74.23,102.35l8.36-16.73H97l-3.68,10,6,3.68,6-13.38h6L107,95.66l6,3.68,6-13.38c2-4-.34-8.37-6-8.37h-8V48.83h14.38a52.64,52.64,0,0,1,7.36,26.76C128.41,97.33,115,116.4,95.3,124.42Z" transform="translate(0 0)"/></svg>